HIERARCHY
ROOT Hips
{
  OFFSET 54.9716 85.721 13.6922
  CHANNELS 6 Xposition Yposition Zposition Zrotation Xrotation Yrotation
  JOINT spine
  {
    OFFSET 0 6.3926 0.367606
    CHANNELS 3 Zrotation Xrotation Yrotation
    JOINT spine1
    {
      OFFSET 0 9.17611 0
      CHANNELS 3 Zrotation Xrotation Yrotation
      JOINT spine2
      {
        OFFSET 0 8.79238 0
        CHANNELS 3 Zrotation Xrotation Yrotation
        JOINT Neck
        {
          OFFSET 0 22.5737 1.07624
          CHANNELS 3 Zrotation Xrotation Yrotation
          JOINT Head
          {
            OFFSET 0 6.82011 0
            CHANNELS 3 Zrotation Xrotation Yrotation
            End Site
            {
              OFFSET 0 16.5085 -5.44427
            }
          }
        }
        JOINT RightShoulder
        {
          OFFSET -3.70221 9.49509 -0.515508
          CHANNELS 3 Zrotation Xrotation Yrotation
          JOINT RightArm
          {
            OFFSET 0 12.4537 0
            CHANNELS 3 Zrotation Xrotation Yrotation
            JOINT RightArmRoll
            {
              OFFSET 0 6.28686 0
              CHANNELS 3 Zrotation Xrotation Yrotation
              JOINT RightForeArm
              {
                OFFSET 0 18.3114 0
                CHANNELS 3 Zrotation Xrotation Yrotation
                JOINT RightForeArmRoll
                {
                  OFFSET 0 7.05483 0
                  CHANNELS 3 Zrotation Xrotation Yrotation
                  JOINT RightHand
                  {
                    OFFSET 0 14.1575 0
                    CHANNELS 3 Zrotation Xrotation Yrotation
                    End Site
                    {
                      OFFSET 0 0 0
                    }
                  }
                }
              }
            }
          }
        }
        JOINT LeftShoulder
        {
          OFFSET 3.70221 9.49509 -0.515508
          CHANNELS 3 Zrotation Xrotation Yrotation
          JOINT LeftArm
          {
            OFFSET 0 12.4537 0
            CHANNELS 3 Zrotation Xrotation Yrotation
            JOINT LeftArmRoll
            {
              OFFSET 0 6.28686 0
              CHANNELS 3 Zrotation Xrotation Yrotation
              JOINT LeftForeArm
              {
                OFFSET 0 18.3114 0
                CHANNELS 3 Zrotation Xrotation Yrotation
                JOINT LeftForeArmRoll
                {
                  OFFSET 0 7.05482 0
                  CHANNELS 3 Zrotation Xrotation Yrotation
                  JOINT LeftHand
                  {
                    OFFSET 0 14.1575 0
                    CHANNELS 3 Zrotation Xrotation Yrotation
                    End Site
                    {
                      OFFSET 0 0 0
                    }
                  }
                }
              }
            }
          }
        }
      }
    }
  }
  JOINT RightUpLeg
  {
    OFFSET -5.66616 -1.03903 -0.87161
    CHANNELS 3 Zrotation Xrotation Yrotation
    JOINT RightUpLegRoll
    {
      OFFSET 0 16.6005 0
      CHANNELS 3 Zrotation Xrotation Yrotation
      JOINT RightLeg
      {
        OFFSET 0 -20.5572 0
        CHANNELS 3 Zrotation Xrotation Yrotation
        JOINT RightLegRoll
        {
          OFFSET 0 20.6244 0
          CHANNELS 3 Zrotation Xrotation Yrotation
          JOINT RightFoot
          {
            OFFSET 0 17.1664 0
            CHANNELS 3 Zrotation Xrotation Yrotation
            JOINT RightToeBase
            {
              OFFSET 0 14.3502 0
              CHANNELS 3 Zrotation Xrotation Yrotation
              End Site
              {
                OFFSET 0.00608252 6.94971 -0.801061
              }
            }
          }
        }
      }
    }
  }
  JOINT LeftUpLeg
  {
    OFFSET 5.66616 -1.03903 -0.87161
    CHANNELS 3 Zrotation Xrotation Yrotation
    JOINT LeftUpLegRoll
    {
      OFFSET 0 16.6006 0
      CHANNELS 3 Zrotation Xrotation Yrotation
      JOINT LeftLeg
      {
        OFFSET 0 20.5571 0
        CHANNELS 3 Zrotation Xrotation Yrotation
        JOINT LeftLegRoll
        {
          OFFSET 0 20.8151 0
          CHANNELS 3 Zrotation Xrotation Yrotation
          JOINT LeftFoot
          {
            OFFSET 0 16.9757 0
            CHANNELS 3 Zrotation Xrotation Yrotation
            JOINT LeftToeBase
            {
              OFFSET 0 14.3502 0
              CHANNELS 3 Zrotation Xrotation Yrotation
              End Site
              {
                OFFSET -0.0272592 6.9497 -0.801061
              }
            }
          }
        }
      }
    }
  }
}
MOTION
Frames: 13
Frame Time: 0.00208333
54.0667 85.7142 14.2057 -1.97145 -3.31067 -3.58443 -0.392235 -1.08917 -0.12386 -0.785537 1.82504 -0.204502 -0.783824 3.47002 -0.191238 11.6587 11.1182 -1.0475 -8.11898 10.2867 2.56359 26.4372 -20.3632 -18.005 63.3179 39.6135 54 -1.1571e-005 -1.09502e-006 -8.16237e-006 172.552 60.5496 -163.746 -5.19494e-006 -1.78822e-006 -3.0121 8.02888 -4.95147 0.697716 -54.1153 3.20044 -2.78541 -111.512 13.3527 -1.61158 -8.75125e-006 1.69289e-006 1.24558e-005 -9.95623 4.14205 0.912427 -1.18311e-006 -3.812e-006 3 -8.02896 -4.95147 -0.69769 177.101 -1.45442 -0.107898 180 7.01537e-015 178.879 177.44 5.61537 179.719 -1.98147e-006 1.70924e-006 0.0518819 -18.3851 67.5619 19.1771 8.13649 25.2327 -3.48774 -173.011 -1.36308 -0.694059 4.54188e-006 -4.6773e-006 -1.06562 -1.01896 -7.68128 0.518346 5.15392e-008 -6.38619e-006 -0.0270433 17.8692 68.8758 -20.247 -8.13653 25.2332 3.48697 
54.0714 85.7145 14.2081 -1.97858 -3.31575 -3.58763 -0.391747 -1.08865 -0.124577 -0.784734 1.82608 -0.205654 -0.783007 3.47106 -0.192421 11.673 11.1104 -1.0492 -8.13169 10.2993 2.56652 26.5009 -20.3408 -17.9661 63.3215 39.617 54.0329 -1.1571e-005 -1.09502e-006 -8.16237e-006 172.5 60.7156 -163.71 -5.19494e-006 -1.78822e-006 -3.0121 8.02888 -4.95147 0.697716 -54.099 3.19485 -2.78445 -111.541 13.3457 -1.58018 -8.75125e-006 1.69289e-006 1.24558e-005 -9.97136 4.16319 0.914246 -1.18311e-006 -3.812e-006 3 -8.02896 -4.95147 -0.69769 177.109 -1.45884 -0.111292 180 7.01537e-015 178.879 177.441 5.61823 179.719 -1.98147e-006 1.70924e-006 0.0518752 -18.384 67.5602 19.1759 8.13649 25.2327 -3.48774 -173.003 -1.35692 -0.699621 4.54188e-006 -4.6773e-006 -1.06493 -1.02 -7.70681 0.519355 5.15392e-008 -6.38619e-006 -0.0270921 17.8687 68.8885 -20.2578 -8.13653 25.2332 3.48697 
54.0738 85.732 14.1955 -1.98618 -3.32052 -3.59095 -0.391259 -1.08812 -0.12521 -0.783885 1.82715 -0.206739 -0.782144 3.47212 -0.193537 11.691 11.0991 -1.0509 -8.14988 10.3151 2.57054 26.5664 -20.3193 -17.9279 63.3265 39.6233 54.0672 -1.1571e-005 -1.09502e-006 -8.16237e-006 172.443 60.8983 -163.67 -5.19494e-006 -1.78822e-006 -3.0121 8.02888 -4.95147 0.697716 -54.0817 3.18808 -2.78288 -111.569 13.3396 -1.54844 -8.75125e-006 1.69289e-006 1.24558e-005 -9.98616 4.18448 0.915984 -1.18311e-006 -3.812e-006 3 -8.02896 -4.95147 -0.69769 177.111 -1.46229 -0.105857 180 7.01537e-015 178.879 177.43 5.6204 179.72 -1.98147e-006 1.70924e-006 0.0518686 -18.3825 67.5586 19.1748 8.13649 25.2327 -3.48774 -172.996 -1.35383 -0.705264 4.54188e-006 -4.6773e-006 -1.06436 -1.02117 -7.72533 0.520089 5.15392e-008 -6.38619e-006 -0.0271207 17.8685 68.8977 -20.2655 -8.13653 25.2332 3.48697 
54.0742 85.7289 14.2002 -1.99437 -3.32482 -3.59442 -0.390729 -1.08763 -0.125799 -0.782918 1.82814 -0.207808 -0.781161 3.47312 -0.194637 11.7133 11.0843 -1.0527 -8.17439 10.3343 2.57573 26.6343 -20.2983 -17.8899 63.3316 39.6323 54.1058 -1.1571e-005 -1.09502e-006 -8.16237e-006 172.381 61.097 -163.623 -5.19494e-006 -1.78822e-006 -3.0121 8.02888 -4.95147 0.697716 -54.0635 3.18022 -2.78073 -111.599 13.3342 -1.51628 -8.75125e-006 1.69289e-006 1.24558e-005 -10.0007 4.20582 0.917627 -1.18311e-006 -3.812e-006 3 -8.02896 -4.95147 -0.69769 177.108 -1.46456 -0.0922316 180 7.01537e-015 178.879 177.408 5.62199 179.721 -1.98147e-006 1.70924e-006 0.051862 -18.3805 67.5571 19.174 8.13649 25.2327 -3.48774 -172.988 -1.35326 -0.711199 4.54188e-006 -4.6773e-006 -1.06389 -1.02255 -7.7379 0.520562 5.15392e-008 -6.38619e-006 -0.0271508 17.869 68.904 -20.2708 -8.13653 25.2332 3.48697 
54.0984 85.7293 14.1852 -2.00305 -3.32875 -3.59803 -0.390167 -1.08716 -0.126344 -0.78186 1.82909 -0.208853 -0.780089 3.47406 -0.195717 11.7392 11.0665 -1.05455 -8.20417 10.3566 2.58192 26.7043 -20.2778 -17.8521 63.3369 39.6435 54.1489 -1.1571e-005 -1.09502e-006 -8.16237e-006 172.313 61.3109 -163.571 -5.19494e-006 -1.78822e-006 -3.0121 8.02888 -4.95147 0.697716 -54.0445 3.17139 -2.77806 -111.629 13.3296 -1.4838 -8.75125e-006 1.69289e-006 1.24558e-005 -10.0149 4.22727 0.919195 -1.18311e-006 -3.812e-006 3 -8.02896 -4.95147 -0.69769 177.101 -1.46585 -0.071451 180 7.01537e-015 178.88 177.375 5.62306 179.724 -1.98147e-006 1.70924e-006 0.0518556 -18.3783 67.5556 19.1732 8.13649 25.2327 -3.48774 -172.98 -1.35493 -0.717345 4.54188e-006 -4.6773e-006 -1.0635 -1.02409 -7.74525 0.520809 5.15392e-008 -6.38619e-006 -0.0271824 17.87 68.9076 -20.274 -8.13653 25.2332 3.48697 
54.097 85.7339 14.1869 -2.01208 -3.3324 -3.60175 -0.389586 -1.08669 -0.126847 -0.780741 1.83002 -0.209869 -0.778953 3.47499 -0.196769 11.7679 11.0461 -1.0564 -8.23815 10.3812 2.58893 26.776 -20.2575 -17.8143 63.3424 39.6566 54.1964 -1.1571e-005 -1.09502e-006 -8.16237e-006 172.238 61.5391 -163.513 -5.19494e-006 -1.78822e-006 -3.0121 8.02888 -4.95147 0.697716 -54.0249 3.16171 -2.77493 -111.659 13.3256 -1.45108 -8.75125e-006 1.69289e-006 1.24558e-005 -10.0288 4.24886 0.920707 -1.18311e-006 -3.812e-006 3 -8.02896 -4.95147 -0.69769 177.089 -1.46635 -0.0445498 180 7.01537e-015 178.88 177.335 5.62367 179.727 -1.98147e-006 1.70924e-006 0.0518492 -18.3757 67.5542 19.1725 8.13649 25.2327 -3.48774 -172.972 -1.35859 -0.723622 4.54188e-006 -4.6773e-006 -1.0632 -1.02577 -7.74813 0.520861 5.15392e-008 -6.38619e-006 -0.0272155 17.8715 68.9092 -20.2753 -8.13653 25.2332 3.48697 
54.0971 85.7357 14.2152 -2.02136 -3.33589 -3.60555 -0.388998 -1.08622 -0.127311 -0.779586 1.83096 -0.210851 -0.777782 3.47594 -0.197786 11.7986 11.0236 -1.05817 -8.27529 10.4078 2.59658 26.8494 -20.2376 -17.7766 63.3479 39.6713 54.2483 -1.1571e-005 -1.09502e-006 -8.16237e-006 172.159 61.7808 -163.45 -5.19494e-006 -1.78822e-006 -3.0121 8.02888 -4.95147 0.697716 -54.0048 3.15131 -2.77139 -111.689 13.3222 -1.4182 -8.75125e-006 1.69289e-006 1.24558e-005 -10.0426 4.27064 0.922183 -1.18311e-006 -3.812e-006 3 -8.02896 -4.95147 -0.69769 177.074 -1.46628 -0.0125626 180 7.01537e-015 178.881 177.287 5.62389 179.731 -1.98147e-006 1.70924e-006 0.0518428 -18.3728 67.5529 19.1719 8.13649 25.2327 -3.48774 -172.964 -1.36395 -0.72995 4.54188e-006 -4.6773e-006 -1.06295 -1.02753 -7.74728 0.520754 5.15392e-008 -6.38619e-006 -0.02725 17.8734 68.9089 -20.2752 -8.13653 25.2332 3.48697 
54.0968 85.7359 14.2079 -2.03076 -3.3393 -3.6094 -0.388416 -1.08574 -0.127737 -0.778424 1.83194 -0.211792 -0.776604 3.47692 -0.198763 11.8305 10.9994 -1.05983 -8.31454 10.4357 2.6047 26.924 -20.2179 -17.739 63.3536 39.6873 54.3045 -1.1571e-005 -1.09502e-006 -8.16237e-006 172.073 62.0351 -163.38 -5.19494e-006 -1.78822e-006 -3.0121 8.02888 -4.95147 0.697716 -53.9844 3.14033 -2.76751 -111.72 13.3193 -1.38525 -8.75125e-006 1.69289e-006 1.24558e-005 -10.0561 4.29265 0.923643 -1.18311e-006 -3.812e-006 3 -8.02896 -4.95147 -0.69769 177.057 -1.46585 0.0234758 180 7.01537e-015 178.881 177.235 5.62377 179.736 -1.98147e-006 1.70924e-006 0.0518365 -18.3698 67.5516 19.1714 8.13649 25.2327 -3.48774 -172.956 -1.37077 -0.736249 4.54188e-006 -4.6773e-006 -1.06276 -1.02935 -7.74343 0.520521 5.15392e-008 -6.38619e-006 -0.0272858 17.8756 68.9072 -20.2738 -8.13653 25.2332 3.48697 
54.0887 85.7311 14.1981 -2.04017 -3.34275 -3.61329 -0.387852 -1.08521 -0.128126 -0.777283 1.83299 -0.212687 -0.775447 3.47797 -0.199693 11.863 10.974 -1.0613 -8.35483 10.4644 2.61309 26.9997 -20.1983 -17.7014 63.3592 39.7042 54.365 -1.1571e-005 -1.09502e-006 -8.16237e-006 171.982 62.3011 -163.306 -5.19494e-006 -1.78822e-006 -3.0121 8.02888 -4.95147 0.697716 -53.9639 3.12888 -2.76334 -111.75 13.3169 -1.35231 -8.75125e-006 1.69289e-006 1.24558e-005 -10.0695 4.31493 0.925106 -1.18311e-006 -3.812e-006 3 -8.02896 -4.95147 -0.69769 177.037 -1.46525 0.0625307 180 7.01537e-015 178.882 177.178 5.62339 179.74 -1.98147e-006 1.70924e-006 0.0518302 -18.3666 67.5504 19.171 8.13649 25.2327 -3.48774 -172.948 -1.37876 -0.742439 4.54188e-006 -4.6773e-006 -1.06261 -1.03119 -7.73733 0.520195 5.15392e-008 -6.38619e-006 -0.0273228 17.8782 68.9044 -20.2715 -8.13653 25.2332 3.48697 
54.1044 85.7351 14.2021 -2.04946 -3.34631 -3.61717 -0.387317 -1.08464 -0.128481 -0.776189 1.83414 -0.21353 -0.774338 3.47912 -0.20057 11.8952 10.9478 -1.06255 -8.39511 10.4935 2.6216 27.0761 -20.1788 -17.6638 63.3649 39.7218 54.4299 -1.1571e-005 -1.09502e-006 -8.16237e-006 171.885 62.5779 -163.225 -5.19494e-006 -1.78822e-006 -3.0121 8.02888 -4.95147 0.697716 -53.9434 3.1171 -2.75894 -111.78 13.3148 -1.31947 -8.75125e-006 1.69289e-006 1.24558e-005 -10.0827 4.33752 0.926591 -1.18311e-006 -3.812e-006 3 -8.02896 -4.95147 -0.69769 177.016 -1.46469 0.103568 180 7.01538e-015 178.883 177.119 5.62281 179.745 -1.98147e-006 1.70924e-006 0.051824 -18.3634 67.5493 19.1706 8.13649 25.2327 -3.48774 -172.941 -1.38767 -0.748438 4.54188e-006 -4.6773e-006 -1.06248 -1.033 -7.72971 0.51981 5.15392e-008 -6.38619e-006 -0.0273609 17.8809 68.901 -20.2687 -8.13653 25.2332 3.48697 
54.1022 85.7327 14.2132 -2.05851 -3.35011 -3.62103 -0.386825 -1.08401 -0.128804 -0.77517 1.83542 -0.214316 -0.773304 3.4804 -0.201387 11.9263 10.9213 -1.0635 -8.43432 10.5224 2.63003 27.1531 -20.1592 -17.6262 63.3705 39.7397 54.499 -1.1571e-005 -1.09502e-006 -8.16237e-006 171.783 62.8648 -163.14 -5.19494e-006 -1.78822e-006 -3.0121 8.02888 -4.95147 0.697716 -53.9231 3.10512 -2.75436 -111.81 13.313 -1.28682 -8.75125e-006 1.69289e-006 1.24558e-005 -10.0958 4.36046 0.92812 -1.18311e-006 -3.812e-006 3 -8.02896 -4.95147 -0.69769 176.994 -1.46438 0.145552 180 7.01538e-015 178.884 177.059 5.62209 179.75 -1.98147e-006 1.70924e-006 0.0518177 -18.3601 67.5482 19.1703 8.13649 25.2327 -3.48774 -172.934 -1.39722 -0.754168 4.54188e-006 -4.6773e-006 -1.06237 -1.03476 -7.72133 0.519401 5.15392e-008 -6.38619e-006 -0.0274 17.8837 68.8972 -20.2657 -8.13653 25.2332 3.48697 
54.1072 85.7301 14.2121 -2.06721 -3.35422 -3.62483 -0.386386 -1.08329 -0.129096 -0.774255 1.83685 -0.215037 -0.772375 3.48183 -0.202138 11.9557 10.8949 -1.06411 -8.47142 10.5505 2.63821 27.2304 -20.1397 -17.5885 63.376 39.7576 54.5724 -1.1571e-005 -1.09502e-006 -8.16237e-006 171.675 63.1607 -163.049 -5.19494e-006 -1.78822e-006 -3.0121 8.02888 -4.95147 0.697716 -53.9033 3.09306 -2.74966 -111.839 13.3115 -1.25444 -8.75125e-006 1.69289e-006 1.24558e-005 -10.1087 4.3838 0.92971 -1.18311e-006 -3.812e-006 3 -8.02896 -4.95147 -0.69769 176.971 -1.46452 0.187448 180 7.01538e-015 178.884 176.999 5.6213 179.755 -1.98147e-006 1.70924e-006 0.0518115 -18.3569 67.5472 19.17 8.13649 25.2327 -3.48774 -172.928 -1.40715 -0.759547 4.54188e-006 -4.6773e-006 -1.06225 -1.03642 -7.7129 0.519 5.15392e-008 -6.38619e-006 -0.0274401 17.8866 68.8936 -20.2627 -8.13653 25.2332 3.48697 
54.1127 85.7317 14.2088 -2.07544 -3.35877 -3.62856 -0.386015 -1.08249 -0.129359 -0.773469 1.83847 -0.215689 -0.771577 3.48345 -0.202816 11.9826 10.869 -1.06432 -8.50533 10.5774 2.64597 27.3076 -20.1199 -17.5507 63.3814 39.7751 54.6501 -1.1571e-005 -1.09502e-006 -8.16237e-006 171.563 63.465 -162.953 -5.19494e-006 -1.78822e-006 -3.0121 8.02888 -4.95147 0.697716 -53.8839 3.08105 -2.7449 -111.867 13.3101 -1.22241 -8.75125e-006 1.69289e-006 1.24558e-005 -10.1216 4.40757 0.931382 -1.18311e-006 -3.812e-006 3 -8.02896 -4.95147 -0.69769 176.949 -1.46532 0.228223 180 7.01538e-015 178.885 176.942 5.62051 179.76 -1.98147e-006 1.70924e-006 0.0518052 -18.3537 67.5462 19.1697 8.13649 25.2327 -3.48774 -172.922 -1.41719 -0.764496 4.54188e-006 -4.6773e-006 -1.06213 -1.03796 -7.70519 0.518641 5.15392e-008 -6.38619e-006 -0.0274811 17.8895 68.8904 -20.26 -8.13653 25.2332 3.48697 
